<svg width="32" height="32" viewBox="0 0 32 32" xmlns="http://www.w3.org/2000/svg">
  <!-- Background -->
  <defs>
    <linearGradient id="bgGradient" x1="0%" y1="0%" x2="100%" y2="100%">
      <stop offset="0%" style="stop-color:#9333ea;stop-opacity:1" />
      <stop offset="100%" style="stop-color:#7c3aed;stop-opacity:1" />
    </linearGradient>
  </defs>
  
  <!-- Rounded Square Background -->
  <rect width="32" height="32" rx="6" ry="6" fill="url(#bgGradient)"/>
  
  <!-- Exact Lucide Baby Icon -->
  <g transform="translate(4, 4) scale(1)" stroke="#ffffff" stroke-width="1.5" stroke-linecap="round" stroke-linejoin="round" fill="none">
    <!-- Mouth -->
    <path d="M10 16c.5.3 1.2.5 2 .5s1.5-.2 2-.5"/>
    <!-- Left eye -->
    <path d="M15 12h.01"/>
    <!-- Head shape -->
    <path d="M19.38 6.813A9 9 0 0 1 20.8 10.2a2 2 0 0 1 0 3.6 9 9 0 0 1-17.6 0 2 2 0 0 1 0-3.6A9 9 0 0 1 12 3c2 0 3.5 1.1 3.5 2.5s-.9 2.5-2 2.5c-.8 0-1.5-.4-1.5-1"/>
    <!-- Right eye -->
    <path d="M9 12h.01"/>
  </g>
  
  <!-- Small heart accent -->
  <circle cx="24" cy="8" r="2" fill="#ec4899" opacity="0.8"/>
</svg>
